<svg width="759" height="759" viewBox="0 0 759 759" fill="none" xmlns="http://www.w3.org/2000/svg">
<g clip-path="url(#clip0_61_19)">
<path d="M379.5 759C589.092 759 759 589.092 759 379.5C759 169.908 589.092 0 379.5 0C169.908 0 0 169.908 0 379.5C0 589.092 169.908 759 379.5 759Z" fill="#FAFAFA"/>
<path d="M379.5 103.744C434.039 103.744 487.354 119.916 532.702 150.217C578.05 180.517 613.394 223.585 634.266 273.973C655.137 324.361 660.598 379.806 649.958 433.297C639.318 486.789 613.054 535.924 574.489 574.489C535.924 613.054 486.789 639.318 433.297 649.958C379.806 660.598 324.36 655.137 273.973 634.266C223.585 613.394 180.517 578.05 150.217 532.702C119.916 487.354 103.744 434.039 103.744 379.5C103.744 306.365 132.796 236.225 184.511 184.511C236.225 132.796 306.365 103.744 379.5 103.744ZM379.5 79.7786C320.252 79.7786 262.334 97.3477 213.071 130.264C163.808 163.181 125.412 209.966 102.739 264.704C80.0658 319.442 74.1335 379.675 85.6922 437.784C97.2509 495.894 125.782 549.271 167.676 591.166C209.571 633.061 262.948 661.591 321.058 673.15C379.168 684.709 439.4 678.776 494.138 656.103C548.876 633.43 595.662 595.034 628.578 545.771C661.495 496.508 679.064 438.59 679.064 379.342C679.064 299.893 647.503 223.698 591.324 167.519C535.144 111.34 458.949 79.7786 379.5 79.7786Z" fill="#0A0A0A"/>
<path d="M96.491 379.5H49.1915C49.0059 336.184 57.3788 293.258 73.8293 253.187C90.2799 213.116 114.484 176.689 145.052 145.998L178.95 179.896C152.718 206.083 131.928 237.201 117.776 271.459C103.624 305.716 96.3898 342.435 96.491 379.5Z" fill="#0A0A0A"/>
<path d="M379.5 710.281C336.023 710.411 292.954 701.906 252.789 685.262C212.625 668.617 176.165 644.162 145.525 613.317L179.423 579.577C205.658 605.887 236.849 626.734 271.191 640.915C305.533 655.096 342.345 662.328 379.5 662.194V710.281Z" fill="#0A0A0A"/>
<path d="M613.318 613.317L579.577 579.577C605.887 553.342 626.734 522.151 640.915 487.809C655.096 453.467 662.328 416.655 662.194 379.5H709.493C709.723 422.897 701.34 465.909 684.831 506.044C668.322 546.18 644.015 582.641 613.318 613.317Z" fill="#0A0A0A"/>
<path d="M579.577 179.423C553.355 153.085 522.17 132.208 487.828 118C453.485 103.792 416.666 96.535 379.5 96.6487V49.3492C422.894 49.146 465.898 57.5404 506.029 74.0478C546.161 90.5551 582.626 114.848 613.317 145.525L579.577 179.423Z" fill="#0A0A0A"/>
<path d="M379.5 483.874C358.857 483.874 338.677 477.753 321.513 466.284C304.349 454.815 290.971 438.514 283.071 419.442C275.171 400.37 273.104 379.384 277.131 359.138C281.159 338.891 291.099 320.293 305.696 305.696C320.293 291.099 338.891 281.159 359.138 277.131C379.384 273.104 400.371 275.171 419.442 283.071C438.514 290.971 454.815 304.348 466.284 321.513C477.753 338.677 483.874 358.857 483.874 379.5C483.833 407.169 472.823 433.693 453.258 453.258C433.693 472.823 407.169 483.833 379.5 483.874ZM379.5 278.91C359.636 278.91 340.219 284.8 323.703 295.836C307.187 306.871 294.314 322.557 286.712 340.908C279.111 359.26 277.122 379.454 280.997 398.936C284.872 418.418 294.438 436.313 308.483 450.359C322.529 464.405 340.425 473.97 359.907 477.845C379.389 481.72 399.582 479.732 417.934 472.13C436.286 464.529 451.971 451.656 463.007 435.14C474.043 418.624 479.933 399.206 479.933 379.342C479.849 352.746 469.236 327.265 450.415 308.474C431.594 289.682 406.096 279.109 379.5 279.067V278.91Z" fill="#0A0A0A"/>
<path d="M316.276 309.497C321.675 309.497 326.051 305.12 326.051 299.721C326.051 294.323 321.675 289.946 316.276 289.946C310.877 289.946 306.501 294.323 306.501 299.721C306.501 305.12 310.877 309.497 316.276 309.497Z" fill="#0A0A0A"/>
<path d="M534.327 563.495C561.147 563.495 582.888 541.754 582.888 514.934C582.888 488.115 561.147 466.374 534.327 466.374C507.508 466.374 485.766 488.115 485.766 514.934C485.766 541.754 507.508 563.495 534.327 563.495Z" fill="#0A0A0A"/>
<path d="M193.455 514.934C220.275 514.934 242.016 493.193 242.016 466.373C242.016 439.554 220.275 417.813 193.455 417.813C166.636 417.813 144.894 439.554 144.894 466.373C144.894 493.193 166.636 514.934 193.455 514.934Z" fill="#0A0A0A"/>
<path d="M481.352 277.491C467.998 264.093 452.121 253.474 434.639 246.249C417.157 239.023 398.416 235.334 379.5 235.394V231.295C398.965 231.236 418.247 235.054 436.221 242.525C454.195 249.996 470.501 260.971 484.19 274.81L481.352 277.491Z" fill="#0A0A0A"/>
<path d="M235.394 379.5H231.295C231.236 360.035 235.054 340.753 242.525 322.779C249.996 304.805 260.971 288.499 274.81 274.81L277.648 277.491C264.21 290.855 253.556 306.753 246.303 324.263C239.05 341.773 235.342 360.547 235.394 379.5Z" fill="#0A0A0A"/>
<path d="M430.426 518.561L429.007 514.934C451.962 506.332 472.369 492.063 488.33 473.456C504.291 454.849 515.287 432.508 520.295 408.51C522.191 398.957 523.142 389.24 523.133 379.5H527.075C527.317 389.704 526.472 399.905 524.552 409.929C519.353 434.529 507.987 457.403 491.523 476.405C475.058 495.407 454.034 509.913 430.426 518.561Z" fill="#0A0A0A"/>
<path d="M374.297 157.665H365.31L366.256 181.63H374.297V157.665ZM356.481 158.453H347.494L350.49 182.261H358.373L356.481 158.453ZM338.665 160.503L329.836 162.237L334.723 185.572H336.615L342.449 184.468L338.665 160.818V160.503ZM321.164 164.129C318.326 164.918 315.33 165.548 312.492 166.494L319.114 189.198L325.421 187.464H326.209L320.533 164.287L321.164 164.129ZM303.978 169.175L295.622 172.17L303.978 194.559L311.231 191.878L303.663 169.175H303.978ZM287.266 175.481L279.067 179.108L289.316 200.708L293.573 198.816H294.519H296.253L286.793 176.743L287.266 175.481ZM271.499 183.207L263.774 187.464L275.756 208.276L282.221 204.965L271.026 183.838L271.499 183.207ZM255.733 192.194L248.323 197.081L262.04 216.79L266.139 213.952H268.031H269.134L256.206 193.77L255.733 192.194ZM241.07 202.284L234.133 207.803L249.899 226.407L255.575 221.993L241.07 202.915V202.284ZM227.195 213.636L220.731 220.731L236.498 236.498H237.286H238.074L241.385 233.502L225.619 215.528L227.195 213.636ZM214.425 226.092L208.276 232.714L226.25 248.48L228.141 246.431H230.506L231.61 245.169L214.425 228.614V226.092ZM202.6 239.493C200.708 241.701 198.816 244.066 197.081 246.431L216.159 260.778H216.947C217.752 259.556 218.648 258.396 219.628 257.31L201.181 241.543L202.6 239.493ZM191.879 253.683C190.144 256.206 188.568 258.729 186.991 261.251L207.172 274.022L208.276 272.288L210.01 269.923V269.134L190.302 255.418L191.879 253.683ZM182.261 269.45L178.004 277.333L199.131 288.37L199.919 287.266L200.865 285.689L180.054 273.707L182.261 269.45ZM174.062 285.216L170.278 293.415L192.351 302.717C192.351 301.456 193.455 300.352 193.928 299.091V297.672L173.432 284.901L174.062 285.216ZM166.967 300.983L163.972 309.497L186.833 317.065L189.198 310.285L166.81 301.771L166.967 300.983ZM161.449 318.011C160.503 320.849 159.872 323.844 159.084 326.682L182.419 332.358V330.939C182.774 329.913 183.037 328.858 183.207 327.786V326.84L160.188 320.218L161.449 318.011ZM157.665 335.827C157.665 338.665 156.562 341.66 156.089 344.498L179.738 348.282C179.738 346.706 179.738 345.129 180.527 343.552V341.818L157.665 335.827ZM154.827 353.485C154.827 356.323 154.827 359.319 154.827 362.315L178.635 364.207C178.635 364.207 178.635 362.945 178.635 362.315C178.712 361.528 178.712 360.736 178.635 359.95L154.827 357.269V353.485ZM153.408 371.301C153.408 373.982 153.408 376.662 153.408 379.5H177.531V372.09L153.566 371.301H153.408ZM177.373 388.014L153.566 389.118V397.947L177.531 396.055C177.531 395.109 177.531 394.005 177.531 393.059C177.531 391.798 177.531 390.537 177.531 389.275L177.373 388.014ZM178.792 403.78L154.985 406.776C154.985 409.772 155.773 412.61 156.246 415.605L179.896 411.664C179.896 409.141 179.896 406.461 178.792 403.78ZM181.315 419.547L157.665 424.592C157.665 427.43 158.926 430.426 159.557 433.264L182.734 427.43V426.169C182.734 424.908 182.734 423.646 182.734 422.385V421.124L181.315 419.547ZM185.257 435.314L161.607 441.462C162.395 444.3 163.341 447.138 164.287 449.976L186.991 442.251C186.991 440.043 185.572 437.836 184.784 435.629L185.257 435.314ZM190.302 451.08L167.913 459.594C169.017 462.432 170.121 465.27 171.382 467.95L193.297 458.49L191.563 454.233H189.198L190.302 451.08ZM196.608 465.743L175.008 476.149C176.427 478.829 177.689 481.509 179.108 484.032L200.235 472.838C199.131 470.788 198.185 468.896 197.239 466.847L196.608 465.743ZM204.176 479.775L183.522 491.915C184.941 494.438 186.518 496.961 188.095 499.483L208.276 486.555C206.857 484.347 205.595 482.14 204.334 479.933L204.176 479.775ZM212.69 493.334L193.14 506.893C194.716 509.416 196.608 511.781 198.343 514.146L217.42 499.641L216.159 498.064L214.109 495.384L212.69 493.334ZM222.308 505.947L203.861 521.714L209.695 528.494L227.511 512.727L226.565 511.466C225.461 510.362 224.515 509.101 223.412 507.839L222.308 505.947ZM233.029 517.93L215.844 534.485C217.893 536.692 219.943 538.742 222.15 540.791L237.917 523.448C236.066 521.834 234.328 520.096 232.714 518.245L233.029 517.93ZM244.539 528.809L228.772 546.783L235.552 552.616L251.318 534.012H247.534H246.115L244.854 532.908L244.539 528.809ZM256.994 538.9L242.647 558.135L249.899 563.338L263.458 543.472L256.994 538.9ZM270.08 547.886L256.837 567.595L264.404 572.167L276.387 551.828L273.391 550.094H272.603L270.869 549.148H270.08V547.886ZM283.955 555.77L272.918 577.054L280.959 580.996L291.05 559.396H289.946L285.374 557.189H283.797L283.955 555.77ZM298.46 562.549L288.527 583.361C291.246 584.627 294.036 585.732 296.883 586.672L305.24 564.284L297.829 561.288L298.46 562.549ZM313.281 568.225L305.87 590.929L314.384 593.452L321.006 570.433L316.276 569.171H315.33H313.123L313.281 568.225ZM329.047 572.482L323.371 595.817L332.2 597.709L336.773 574.216H334.881H329.047V572.482ZM344.814 575.635L340.084 599.128L348.913 600.231L351.593 576.581H348.282H343.71L344.814 575.635ZM360.58 577.37L358.688 601.335H367.675V577.37H359.792H360.58ZM384.388 577.37H376.504V601.177H385.334L384.23 577.212L384.388 577.37ZM400.154 576.108H397.632H395.74H392.744L394.163 600.231C397.121 600.072 400.068 599.756 402.992 599.285L399.997 575.635L400.154 576.108ZM415.921 573.428L410.245 574.532H408.037L411.979 598.182L420.808 596.605L415.921 573.113V573.428ZM431.687 569.487L425.854 571.221H424.592L430.426 594.398L439.097 592.033L432.318 569.014L431.687 569.487ZM447.454 564.284L442.566 566.176H441.778H439.886L447.611 588.722L456.125 585.726L447.454 563.338V564.284ZM462.117 557.977H460.382L455.81 560.027L465.27 581.942L473.468 578.316L463.063 556.716L462.117 557.977ZM476.149 550.409H475.203H472.995L470 552.143H467.95L479.144 573.271L487.028 568.856L474.887 548.202L476.149 550.409ZM489.55 541.895L482.928 546.31L495.857 566.491L503.267 561.446L489.55 541.895ZM502.164 532.12L496.015 537.165L510.52 556.085L517.457 550.567L501.691 532.12H502.164ZM513.988 521.556L508.155 526.917L523.921 544.733L530.386 538.584L513.673 521.556H513.988ZM525.025 509.889C523.291 511.939 521.399 513.831 519.664 515.723L537.008 531.489L542.999 524.867L525.025 509.101V509.889ZM534.958 497.434L532.593 500.429L530.701 502.794L549.463 517.772C551.355 515.565 553.089 513.2 554.824 510.835L535.589 496.488L534.958 497.434ZM543.945 484.347L540.634 489.393L560.342 502.794C562.076 500.429 563.653 497.907 565.23 495.384L544.891 482.771L543.945 484.347ZM551.828 470.473L549.148 475.36L548.202 476.937L567.595 488.762L571.852 480.879L550.567 470L551.828 470.473ZM558.608 455.968L557.662 458.333C557.201 459.466 556.674 460.571 556.085 461.644L577.843 471.734C579.104 469.054 580.365 466.374 581.469 463.536L559.396 454.391L558.608 455.968ZM564.126 440.989C564.126 440.989 564.126 442.251 564.126 442.724C563.611 444.55 562.98 446.34 562.234 448.084L584.78 456.283C585.726 453.603 586.83 450.765 587.618 447.927L564.914 440.516L564.126 440.989ZM568.383 425.223L566.491 432.948L589.51 439.413C589.51 436.575 591.087 433.737 591.717 430.741L566.649 425.696L568.383 425.223ZM571.379 409.456C571.456 410.243 571.456 411.035 571.379 411.821C571.379 413.398 571.379 414.975 570.59 416.551L594.082 421.124C594.082 418.128 595.186 415.29 595.659 412.294L569.644 409.929L571.379 409.456ZM573.271 393.69C573.271 395.582 573.271 397.316 573.271 399.208L597.078 401.888C597.078 398.893 597.078 395.897 597.078 392.902L571.536 394.163L573.271 393.69ZM597.709 377.923H572.009V378.396C572.009 379.815 572.009 381.234 572.009 382.653L595.974 383.442C595.974 381.077 595.974 378.869 595.974 376.504V374.455L597.709 377.923ZM596.763 360.107L572.955 362.157C572.955 363.418 572.955 364.679 572.955 365.941V367.044L596.92 365.783C596.92 362.945 596.92 359.95 596.92 356.954L596.763 360.107ZM594.398 342.291L570.906 346.39V347.967L594.713 344.971C594.713 341.976 594.713 338.98 593.294 335.984L594.398 342.291ZM590.771 324.79L565.86 331.097C565.788 332.147 565.788 333.2 565.86 334.25L566.806 338.507L590.298 333.619C590.298 330.624 588.879 327.786 588.249 324.79H590.771ZM583.361 307.289L561.288 315.33L563.653 322.898L586.672 315.33L583.361 307.289ZM576.897 290.577L555.454 299.564L557.189 303.663L558.135 306.028L580.838 299.564L577.37 291.365L576.897 290.577ZM569.014 274.81L548.044 286.162L549.305 288.843L550.251 290.577L571.694 280.013C570.432 277.333 569.014 274.81 567.595 272.13L569.014 274.81ZM559.869 259.044L539.846 272.13L543.787 278.279L564.284 266.139C562.858 263.474 561.279 260.894 559.554 258.413L559.869 259.044ZM549.621 244.539L530.701 259.044L535.431 265.508L555.454 252.264L550.094 245.169L549.621 244.539ZM538.111 230.822L520.453 246.588L523.921 250.53H525.183L543.472 234.763C541.58 232.398 539.688 230.191 537.638 227.984L538.111 230.822ZM525.656 218.051L509.889 235.394L512.254 237.759L513.831 239.493L530.859 222.781L524.552 216.474L525.656 218.051ZM512.096 206.384L497.118 224.988L501.218 228.299H502.006L503.267 229.56L519.034 211.429C516.832 209.405 514.516 207.51 512.096 205.753V206.384ZM497.749 195.662L484.347 215.528H485.136H488.289L502.479 196.293L495.226 191.09L497.749 195.662ZM481.982 186.36L470.315 207.172L473.153 208.749H474.73H475.518L488.131 188.41C485.609 186.833 483.086 185.257 480.406 183.838L481.982 186.36ZM466.216 178.162L457.229 199.919L458.963 200.708H463.851L474.73 179.423C472.207 178.004 469.527 176.743 466.689 175.481L466.216 178.162ZM449.661 171.382L441.462 193.77L447.138 195.978H448.873L458.017 173.747L449.661 170.594V171.382ZM432.633 165.864L427.115 189.198L434.683 191.563L441.462 168.386L432.791 165.864H432.633ZM415.29 161.764L410.718 185.257L418.601 186.991L423.962 163.656L415.29 161.764ZM397.632 159.242L394.951 182.892H396.686L402.992 183.68L406.461 160.03L397.632 158.926V159.242ZM380.604 157.665L379.815 181.63H387.856L389.433 157.823C386.492 157.666 383.545 157.666 380.604 157.823V157.665Z" fill="#0A0A0A"/>
</g>
<defs>
<clipPath id="clip0_61_19">
<rect width="759" height="759" fill="white"/>
</clipPath>
</defs>
</svg>
