<svg width="14" height="14" viewBox="0 0 14 14" fill="none" xmlns="http://www.w3.org/2000/svg">
<g clip-path="url(#clip0_1222_37967)">
<path d="M0.718974 9.39099L4.60897 13.281C4.7496 13.4214 4.94022 13.5003 5.13897 13.5003C5.33772 13.5003 5.52835 13.4214 5.66897 13.281L13.389 5.56099C13.4278 5.52391 13.4578 5.47862 13.4768 5.42844C13.4959 5.37827 13.5034 5.32447 13.499 5.27099L12.909 1.44099C12.9042 1.34972 12.8658 1.26347 12.8012 1.19885C12.7365 1.13422 12.6503 1.0958 12.559 1.09099L8.72897 0.50099C8.67549 0.496551 8.62169 0.504124 8.57152 0.523157C8.52134 0.542189 8.47605 0.572199 8.43897 0.61099L0.718974 8.33099C0.578524 8.47161 0.499634 8.66224 0.499634 8.86099C0.499634 9.05974 0.578524 9.25036 0.718974 9.39099Z" stroke="black" stroke-linecap="round" stroke-linejoin="round"/>
<path d="M9.88904 4.61084C9.6129 4.61084 9.38904 4.38698 9.38904 4.11084C9.38904 3.8347 9.6129 3.61084 9.88904 3.61084C10.1652 3.61084 10.389 3.8347 10.389 4.11084C10.389 4.38698 10.1652 4.61084 9.88904 4.61084Z" stroke="black" stroke-linecap="round" stroke-linejoin="round"/>
</g>
<defs>
<clipPath id="clip0_1222_37967">
<rect width="14" height="14" fill="white"/>
</clipPath>
</defs>
</svg>
